<svg width="121" height="104" viewBox="0 0 121 104" fill="none" xmlns="http://www.w3.org/2000/svg">
<path d="M109.5 80.7626C109.043 80.5379 108.945 80.3369 108.725 80.2946C98.8812 78.674 89.534 75.4184 80.0837 72.4617C70.3344 69.402 60.5852 66.3423 51.1873 62.1661C46.0121 59.7131 40.8977 57.1808 36.4945 53.5556C35.2058 52.4424 33.8985 51.189 32.9139 49.6788C30.8838 46.738 31.5969 43.5051 34.6965 41.5966C35.9448 40.7893 37.3705 40.2439 38.8941 39.8994C41.2403 39.3033 43.6236 38.9877 45.9884 38.5318C47.1708 38.3038 48.3532 38.0759 49.517 37.7078C51.7653 36.9107 52.4208 35.3973 51.7031 33.2099C50.9854 31.0224 49.543 29.2876 47.9182 27.7909C45.4996 25.6861 42.7532 24.338 39.8244 23.228C33.3688 20.802 26.6649 19.1934 19.8106 18.6034C16.9932 18.3346 14.2366 17.9865 11.48 17.6383C10.5409 17.5487 9.56458 17.1787 8.78932 16.7108C8.33159 16.4861 7.92121 15.5418 8.08508 15.1635C8.23039 14.6449 9.03443 14.2531 9.55808 13.8985C9.75909 13.8005 10.0581 13.9036 10.2776 13.9458C14.7352 14.2113 19.3329 14.4583 23.9677 14.9857C31.7798 15.8055 39.3806 17.7232 46.5455 21.1966C49.9083 22.891 52.8455 25.1411 54.7725 28.381C55.6778 29.8303 56.4006 31.5177 56.7636 33.1815C57.5639 37.0699 55.7293 40.4514 52.074 41.9341C50.2463 42.6755 48.2228 43.0148 46.2786 43.415C43.9324 44.0111 41.5676 44.4669 39.2822 44.9836C38.6606 45.1373 38.0153 45.6507 37.4123 45.9446C37.598 47.3466 38.6722 47.9176 39.4846 48.6659C44.2661 52.4549 49.6373 55.3099 55.4155 57.469C67.3504 61.9511 79.3275 66.2137 91.2437 70.5556C95.887 72.2231 100.469 73.97 105.491 75.8014C105.118 75.1375 104.922 74.7355 104.646 74.2727C103.503 72.6409 102.299 71.0885 101.216 69.3774C100.764 68.6527 100.372 67.8487 100.181 66.9467C99.9109 65.9839 100.281 65.0076 101.244 64.7374C101.926 64.5044 102.804 64.6734 103.482 64.9403C104.159 65.2072 104.593 65.7917 105.027 66.3761C108.542 70.8323 112.117 75.209 115.571 79.7445C117.307 82.0824 116.763 84.4369 114.071 85.6495C112.664 86.3352 111.018 86.8384 109.458 86.9025C103.752 87.4442 97.9481 87.785 92.2052 88.0463C91.1444 88.1155 89.9063 87.9228 88.8692 87.6322C87.6734 87.22 87.5248 86.0984 88.6701 85.5901C90.2174 84.8859 91.9048 84.1631 93.648 83.8608C97.6158 83.1213 101.541 82.6014 105.448 81.9412C106.49 81.7319 107.472 81.6019 108.514 81.3925C108.696 81.1544 108.958 80.977 109.5 80.7626Z" fill="#1253A6"/>
</svg>
