<svg width="17" height="11" viewBox="0 0 17 11" fill="none" xmlns="http://www.w3.org/2000/svg">
<path d="M1.16474 10.3198C0.438593 9.60835 0.409509 8.43415 1.09608 7.6859L7.45078 0.760294L7.45241 0.758486C7.46578 0.743767 7.47943 0.729211 7.49336 0.714829C8.0568 0.132505 8.90862 0.00227928 9.60179 0.345509C9.78636 0.436884 9.95753 0.560752 10.1065 0.714689C10.1208 0.729427 10.135 0.744609 10.1481 0.759036L10.1498 0.760942L13.3269 4.22342L16.5039 7.6859C17.1905 8.43415 17.1614 9.60835 16.4353 10.3198C15.6963 11.0438 14.5211 11.0102 13.8225 10.2488L8.8 4.77506L3.77746 10.2488C3.07887 11.0102 1.90375 11.0439 1.16474 10.3198Z" fill="#8A8A8A"/>
</svg>
