<svg width="27" height="27" viewBox="0 0 27 27" fill="none" xmlns="http://www.w3.org/2000/svg">
<path fill-rule="evenodd" clip-rule="evenodd" d="M0.375 13.5C0.375 19.9896 5.11458 25.3854 11.3125 26.4792L11.3857 26.4206C11.3613 26.4159 11.3369 26.4111 11.3125 26.4062V17.1458H8.03125V13.5H11.3125V10.5833C11.3125 7.30208 13.4271 5.47917 16.4167 5.47917C17.3646 5.47917 18.3854 5.625 19.3333 5.77083V9.125H17.6563C16.0521 9.125 15.6875 9.92708 15.6875 10.9479V13.5H19.1875L18.6042 17.1458H15.6875V26.4062C15.6631 26.4111 15.6387 26.4159 15.6143 26.4206L15.6875 26.4792C21.8854 25.3854 26.625 19.9896 26.625 13.5C26.625 6.28125 20.7188 0.375 13.5 0.375C6.28125 0.375 0.375 6.28125 0.375 13.5Z" fill="#1253A6"/>
</svg>
