<svg width="326" height="14" viewBox="0 0 326 14" fill="none" xmlns="http://www.w3.org/2000/svg">
<path d="M1 7C10.8182 0.333333 15.7273 0.333333 15.7273 7C15.7273 13.6667 20.6364 13.6667 30.4545 7C40.2727 0.333333 45.1818 0.333333 45.1818 7C45.1818 13.6667 50.0909 13.6667 59.9091 7C69.7273 0.333333 74.6364 0.333333 74.6364 7C74.6364 13.6667 79.5455 13.6667 89.3636 7C99.1818 0.333333 104.091 0.333333 104.091 7C104.091 13.6667 109 13.6667 118.818 7C128.636 0.333333 133.545 0.333333 133.545 7C133.545 13.6667 138.455 13.6667 148.273 7C158.091 0.333333 163 0.333333 163 7C163 13.6667 167.909 13.6667 177.727 7C187.545 0.333333 192.455 0.333333 192.455 7C192.455 13.6667 197.364 13.6667 207.182 7C217 0.333333 221.909 0.333333 221.909 7C221.909 13.6667 226.818 13.6667 236.636 7C246.455 0.333333 251.364 0.333333 251.364 7C251.364 13.6667 256.273 13.6667 266.091 7C275.909 0.333333 280.818 0.333333 280.818 7C280.818 13.6667 285.727 13.6667 295.545 7C305.364 0.333333 310.273 0.333333 310.273 7C310.273 13.6667 315.182 13.6667 325 7" stroke="#1253A6" stroke-width="3"/>
</svg>
