<svg width="27" height="27" viewBox="0 0 27 27" fill="none" xmlns="http://www.w3.org/2000/svg">
<path d="M13.5004 0.772705C10.044 0.772705 9.61022 0.787819 8.25269 0.849599C6.89781 0.911645 5.97299 1.12615 5.16377 1.44089C4.32671 1.76596 3.61666 2.20081 2.90925 2.9085C2.20132 3.61592 1.76648 4.326 1.44036 5.16282C1.12484 5.97233 0.91007 6.89744 0.849087 8.25183C0.788369 9.60941 0.772461 10.0435 0.772461 13.5C0.772461 16.9565 0.78784 17.389 0.849353 18.7465C0.911662 20.1015 1.12616 21.0263 1.44062 21.8355C1.76595 22.6726 2.20079 23.3827 2.90846 24.0901C3.61559 24.7981 4.32565 25.234 5.16218 25.5591C5.97192 25.8738 6.89701 26.0883 8.25163 26.1504C9.60916 26.2121 10.0427 26.2272 13.4988 26.2272C16.9555 26.2272 17.3879 26.2121 18.7455 26.1504C20.1004 26.0883 21.0262 25.8738 21.836 25.5591C22.6728 25.234 23.3818 24.7981 24.0889 24.0901C24.7968 23.3827 25.2317 22.6726 25.5578 21.8358C25.8707 21.0263 26.0854 20.1012 26.1491 18.7468C26.2101 17.3892 26.226 16.9565 26.226 13.5C26.226 10.0435 26.2101 9.60967 26.1491 8.2521C26.0854 6.89717 25.8707 5.97233 25.5578 5.16308C25.2317 4.326 24.7968 3.61592 24.0889 2.9085C23.381 2.20055 22.673 1.7657 21.8352 1.44089C21.0239 1.12615 20.0985 0.911645 18.7436 0.849599C17.3861 0.787819 16.9539 0.772705 13.4964 0.772705H13.5004ZM12.3587 3.06627C12.6976 3.06573 13.0756 3.06627 13.5004 3.06627C16.8985 3.06627 17.3012 3.07846 18.6431 3.13945C19.884 3.19619 20.5575 3.40354 21.0061 3.57774C21.6 3.80842 22.0234 4.08418 22.4686 4.52964C22.9141 4.97509 23.1898 5.39933 23.421 5.99327C23.5952 6.44138 23.8028 7.11486 23.8593 8.35577C23.9203 9.69744 23.9335 10.1005 23.9335 13.4971C23.9335 16.8936 23.9203 17.2967 23.8593 18.6383C23.8026 19.8793 23.5952 20.5527 23.421 21.0008C23.1903 21.5948 22.9141 22.0177 22.4686 22.4629C22.0232 22.9083 21.6003 23.1841 21.0061 23.4148C20.558 23.5898 19.884 23.7966 18.6431 23.8533C17.3015 23.9143 16.8985 23.9276 13.5004 23.9276C10.1021 23.9276 9.69931 23.9143 8.35769 23.8533C7.11681 23.7961 6.44335 23.5887 5.99446 23.4145C5.40054 23.1838 4.97631 22.9081 4.53087 22.4626C4.08543 22.0172 3.80968 21.594 3.57847 20.9998C3.40428 20.5517 3.19667 19.8782 3.14019 18.6373C3.07921 17.2956 3.06701 16.8926 3.06701 13.4939C3.06701 10.0952 3.07921 9.69426 3.14019 8.35259C3.19693 7.11168 3.40428 6.4382 3.57847 5.98956C3.80915 5.39562 4.08543 4.97138 4.53087 4.52592C4.97631 4.08047 5.40054 3.80471 5.99446 3.5735C6.44308 3.3985 7.11681 3.19168 8.35769 3.13467C9.53174 3.08164 9.98673 3.06574 12.3587 3.06308V3.06627ZM20.2939 5.17952C19.4508 5.17952 18.7667 5.86282 18.7667 6.70626C18.7667 7.54945 19.4508 8.23354 20.2939 8.23354C21.1371 8.23354 21.8211 7.54945 21.8211 6.70626C21.8211 5.86308 21.1371 5.17899 20.2939 5.17899V5.17952ZM13.5004 6.96399C9.89101 6.96399 6.96462 9.89047 6.96462 13.5C6.96462 17.1095 9.89101 20.0346 13.5004 20.0346C17.1098 20.0346 20.0351 17.1095 20.0351 13.5C20.0351 9.89047 17.1095 6.96399 13.5001 6.96399H13.5004ZM13.5004 9.25755C15.8432 9.25755 17.7427 11.1568 17.7427 13.5C17.7427 15.8429 15.8432 17.7424 13.5004 17.7424C11.1573 17.7424 9.25811 15.8429 9.25811 13.5C9.25811 11.1568 11.1573 9.25755 13.5004 9.25755V9.25755Z" fill="#1253A6"/>
</svg>
