<svg width="25" height="25" viewBox="0 0 25 25" fill="none" xmlns="http://www.w3.org/2000/svg">
<path fill-rule="evenodd" clip-rule="evenodd" d="M1.86397 0.104248C0.892101 0.104248 0.104248 0.8921 0.104248 1.86397V23.1361C0.104248 24.108 0.892102 24.8958 1.86397 24.8958H23.1362C24.1081 24.8958 24.8959 24.108 24.8959 23.1361V1.86397C24.8959 0.892101 24.1081 0.104248 23.1362 0.104248H1.86397ZM5.66884 7.80331C6.85662 7.80331 7.81951 6.84042 7.81951 5.65264C7.81951 4.46486 6.85662 3.50197 5.66884 3.50197C4.48106 3.50197 3.51817 4.46486 3.51817 5.65264C3.51817 6.84042 4.48106 7.80331 5.66884 7.80331ZM9.78916 9.39272H13.3535V11.0256C13.3535 11.0256 14.3208 9.09109 16.9525 9.09109C19.3001 9.09109 21.2448 10.2476 21.2448 13.7726V21.206H17.5511V14.6734C17.5511 12.5939 16.4409 12.3652 15.595 12.3652C13.8393 12.3652 13.5388 13.8796 13.5388 14.9446V21.206H9.78916V9.39272ZM7.54364 9.39273H3.79404V21.206H7.54364V9.39273Z" fill="#1253A6"/>
</svg>
