<svg width="144" height="61" viewBox="0 0 144 61" fill="none" xmlns="http://www.w3.org/2000/svg">
<path d="M71.3203 6.19276L70.9501 6.49715C69.4772 7.70819 69.2654 9.88344 70.4769 11.3557L78.1863 20.7238C79.3978 22.1961 81.574 22.4078 83.0469 21.1968L83.4171 20.8924C84.89 19.6813 85.1019 17.5061 83.8903 16.0338L76.1809 6.66572C74.9694 5.19347 72.7932 4.98171 71.3203 6.19276Z" fill="url(#paint0_linear_531_212)"/>
<path d="M66.1042 8.20976L76.9723 21.7786C78.2466 23.3672 78.0737 25.722 76.5009 27.0151C74.927 28.3116 72.5996 28.087 71.3026 26.5138C71.2918 26.5007 71.2815 26.4882 71.2713 26.4751L60.4032 12.9029C59.129 11.3125 59.3018 8.95945 60.8746 7.66639C62.4486 6.36993 64.7759 6.59443 66.073 8.1677C66.0838 8.18078 66.094 8.19328 66.1042 8.20635V8.20976Z" fill="url(#paint1_linear_531_212)"/>
<path d="M63.2737 6.82471H54.4532C52.5461 6.82471 51 8.37011 51 10.2765V10.7556C51 12.662 52.5461 14.2074 54.4532 14.2074H63.2737C65.1809 14.2074 66.7269 12.662 66.7269 10.7556V10.2765C66.7269 8.37011 65.1809 6.82471 63.2737 6.82471Z" fill="url(#paint2_linear_531_212)"/>
<path d="M66.8364 10.5153V27.8945C66.8364 29.931 65.2312 31.6612 63.1939 31.6884C61.1542 31.7123 59.4819 30.0794 59.458 28.0406C59.458 28.0275 59.458 28.0139 59.458 28.0008V10.625C59.458 8.58164 61.0541 6.84752 63.0915 6.82422H63.1438C65.1835 6.82422 66.8364 8.47706 66.8364 10.5153Z" fill="url(#paint3_linear_531_212)"/>
<path d="M5.814 15.856C6.74333 13.748 8.48867 12.694 11.05 12.694V16.672C9.64467 16.5813 8.42067 16.9213 7.378 17.692C6.33533 18.44 5.814 19.6867 5.814 21.432V30H2.142V13H5.814V15.856ZM25.2211 13H28.8931V30H25.2211V27.824C24.1104 29.5693 22.3538 30.442 19.9511 30.442C18.0018 30.442 16.4264 29.8187 15.2251 28.572C14.0238 27.3253 13.4231 25.614 13.4231 23.438V13H17.0951V23.064C17.0951 24.3333 17.4351 25.308 18.1151 25.988C18.7951 26.668 19.7244 27.008 20.9031 27.008C22.1951 27.008 23.2378 26.6113 24.0311 25.818C24.8244 25.002 25.2211 23.7667 25.2211 22.112V13ZM42.1289 12.558C44.0783 12.558 45.6536 13.1813 46.8549 14.428C48.0563 15.6747 48.6569 17.386 48.6569 19.562V30H44.9849V19.936C44.9849 18.6667 44.6449 17.692 43.9649 17.012C43.2849 16.332 42.3556 15.992 41.1769 15.992C39.8849 15.992 38.8423 16.4 38.0489 17.216C37.2556 18.0093 36.8589 19.2333 36.8589 20.888V30H33.1869V13H36.8589V15.176C37.9696 13.4307 39.7263 12.558 42.1289 12.558Z" fill="#253140"/>
<path d="M91.032 23.064C91.304 24.356 91.9273 25.3533 92.902 26.056C93.8767 26.736 95.0667 27.076 96.472 27.076C98.4213 27.076 99.8833 26.3733 100.858 24.968L103.884 26.736C102.207 29.2067 99.7247 30.442 96.438 30.442C93.6727 30.442 91.44 29.6033 89.74 27.926C88.04 26.226 87.19 24.084 87.19 21.5C87.19 18.9613 88.0287 16.842 89.706 15.142C91.3833 13.4193 93.5367 12.558 96.166 12.558C98.6593 12.558 100.699 13.4307 102.286 15.176C103.895 16.9213 104.7 19.0407 104.7 21.534C104.7 21.9193 104.655 22.4293 104.564 23.064H91.032ZM90.998 20.072H100.994C100.745 18.6893 100.167 17.6467 99.26 16.944C98.376 16.2413 97.3333 15.89 96.132 15.89C94.772 15.89 93.6387 16.264 92.732 17.012C91.8253 17.76 91.2473 18.78 90.998 20.072ZM115.855 30.442C113.294 30.442 111.152 29.5807 109.429 27.858C107.729 26.1353 106.879 24.016 106.879 21.5C106.879 18.9613 107.729 16.842 109.429 15.142C111.152 13.4193 113.294 12.558 115.855 12.558C117.51 12.558 119.017 12.9547 120.377 13.748C121.737 14.5413 122.757 15.6067 123.437 16.944L120.275 18.78C119.89 17.964 119.301 17.3293 118.507 16.876C117.737 16.4 116.841 16.162 115.821 16.162C114.325 16.162 113.067 16.672 112.047 17.692C111.05 18.712 110.551 19.9813 110.551 21.5C110.551 23.0187 111.05 24.288 112.047 25.308C113.067 26.328 114.325 26.838 115.821 26.838C116.819 26.838 117.714 26.6 118.507 26.124C119.323 25.648 119.935 25.0133 120.343 24.22L123.505 26.022C122.78 27.382 121.737 28.4587 120.377 29.252C119.017 30.0453 117.51 30.442 115.855 30.442ZM135.102 12.558C137.051 12.558 138.626 13.1813 139.828 14.428C141.029 15.6747 141.63 17.386 141.63 19.562V30H137.958V19.936C137.958 18.6667 137.618 17.692 136.938 17.012C136.258 16.332 135.328 15.992 134.15 15.992C132.858 15.992 131.815 16.4 131.022 17.216C130.228 18.0093 129.832 19.2333 129.832 20.888V30H126.16V6.2H129.832V15.176C130.942 13.4307 132.699 12.558 135.102 12.558Z" fill="#253140"/>
<path d="M37.928 41.144C37.928 41.688 38.168 42.12 38.648 42.44C39.128 42.76 39.712 43.008 40.4 43.184C41.088 43.36 41.776 43.56 42.464 43.784C43.152 43.992 43.736 44.352 44.216 44.864C44.696 45.36 44.936 46.016 44.936 46.832C44.936 47.856 44.528 48.688 43.712 49.328C42.912 49.968 41.872 50.288 40.592 50.288C39.44 50.288 38.456 50.032 37.64 49.52C36.84 49.008 36.28 48.344 35.96 47.528L37.304 46.736C37.528 47.36 37.928 47.856 38.504 48.224C39.096 48.576 39.792 48.752 40.592 48.752C41.376 48.752 42.032 48.6 42.56 48.296C43.088 47.976 43.352 47.488 43.352 46.832C43.352 46.288 43.112 45.856 42.632 45.536C42.152 45.216 41.568 44.968 40.88 44.792C40.192 44.616 39.504 44.424 38.816 44.216C38.128 43.992 37.544 43.632 37.064 43.136C36.584 42.624 36.344 41.96 36.344 41.144C36.344 40.168 36.728 39.352 37.496 38.696C38.28 38.04 39.264 37.712 40.448 37.712C41.424 37.712 42.28 37.936 43.016 38.384C43.752 38.816 44.296 39.408 44.648 40.16L43.328 40.928C42.864 39.808 41.904 39.248 40.448 39.248C39.76 39.248 39.168 39.416 38.672 39.752C38.176 40.072 37.928 40.536 37.928 41.144ZM54.0104 37.712C55.7224 37.712 57.1784 38.32 58.3784 39.536C59.5944 40.752 60.2024 42.24 60.2024 44C60.2024 45.76 59.5944 47.248 58.3784 48.464C57.1784 49.68 55.7224 50.288 54.0104 50.288C51.8824 50.288 50.2664 49.408 49.1624 47.648V54.8H47.5784V38H49.1624V40.352C50.2664 38.592 51.8824 37.712 54.0104 37.712ZM50.5304 47.384C51.4424 48.296 52.5624 48.752 53.8904 48.752C55.2184 48.752 56.3384 48.296 57.2504 47.384C58.1624 46.456 58.6184 45.328 58.6184 44C58.6184 42.672 58.1624 41.552 57.2504 40.64C56.3384 39.712 55.2184 39.248 53.8904 39.248C52.5624 39.248 51.4424 39.712 50.5304 40.64C49.6184 41.552 49.1624 42.672 49.1624 44C49.1624 45.328 49.6184 46.456 50.5304 47.384ZM73.1562 38H74.7403V50H73.1562V47.648C72.0523 49.408 70.4363 50.288 68.3083 50.288C66.5963 50.288 65.1323 49.68 63.9163 48.464C62.7163 47.248 62.1163 45.76 62.1163 44C62.1163 42.24 62.7163 40.752 63.9163 39.536C65.1323 38.32 66.5963 37.712 68.3083 37.712C70.4363 37.712 72.0523 38.592 73.1562 40.352V38ZM65.0683 47.384C65.9803 48.296 67.1003 48.752 68.4283 48.752C69.7563 48.752 70.8763 48.296 71.7883 47.384C72.7003 46.456 73.1562 45.328 73.1562 44C73.1562 42.672 72.7003 41.552 71.7883 40.64C70.8763 39.712 69.7563 39.248 68.4283 39.248C67.1003 39.248 65.9803 39.712 65.0683 40.64C64.1563 41.552 63.7003 42.672 63.7003 44C63.7003 45.328 64.1563 46.456 65.0683 47.384ZM83.6861 50.288C81.8781 50.288 80.3741 49.688 79.1741 48.488C77.9741 47.272 77.3741 45.776 77.3741 44C77.3741 42.224 77.9741 40.736 79.1741 39.536C80.3741 38.32 81.8781 37.712 83.6861 37.712C84.8701 37.712 85.9341 38 86.8781 38.576C87.8221 39.136 88.5101 39.896 88.9421 40.856L87.6461 41.6C87.3261 40.88 86.8061 40.312 86.0861 39.896C85.3821 39.464 84.5821 39.248 83.6861 39.248C82.3581 39.248 81.2381 39.712 80.3261 40.64C79.4141 41.552 78.9581 42.672 78.9581 44C78.9581 45.328 79.4141 46.456 80.3261 47.384C81.2381 48.296 82.3581 48.752 83.6861 48.752C84.5821 48.752 85.3821 48.544 86.0861 48.128C86.7901 47.696 87.3421 47.12 87.7421 46.4L89.0621 47.168C88.5661 48.128 87.8381 48.888 86.8781 49.448C85.9181 50.008 84.8541 50.288 83.6861 50.288ZM96.7631 37.712C98.5391 37.712 99.9711 38.344 101.059 39.608C102.163 40.856 102.715 42.336 102.715 44.048C102.715 44.224 102.699 44.472 102.667 44.792H92.1311C92.2911 46.008 92.8031 46.976 93.6671 47.696C94.5471 48.4 95.6271 48.752 96.9071 48.752C97.8191 48.752 98.6031 48.568 99.2591 48.2C99.9311 47.816 100.435 47.32 100.771 46.712L102.163 47.528C101.635 48.376 100.915 49.048 100.003 49.544C99.0911 50.04 98.0511 50.288 96.8831 50.288C94.9951 50.288 93.4591 49.696 92.2751 48.512C91.0911 47.328 90.4991 45.824 90.4991 44C90.4991 42.208 91.0831 40.712 92.2511 39.512C93.4191 38.312 94.9231 37.712 96.7631 37.712ZM96.7631 39.248C95.5151 39.248 94.4671 39.624 93.6191 40.376C92.7871 41.112 92.2911 42.072 92.1311 43.256H101.083C100.923 41.992 100.435 41.008 99.6191 40.304C98.8031 39.6 97.8511 39.248 96.7631 39.248Z" fill="#253140"/>
<defs>
<linearGradient id="paint0_linear_531_212" x1="90.5037" y1="13.6949" x2="90.5936" y2="13.6949" gradientUnits="userSpaceOnUse">
<stop stop-color="#253672"/>
<stop offset="1" stop-color="#253672"/>
</linearGradient>
<linearGradient id="paint1_linear_531_212" x1="59.5577" y1="17.3407" x2="77.8179" y2="17.3407" gradientUnits="userSpaceOnUse">
<stop stop-color="#253672"/>
<stop offset="0.47" stop-color="#253672"/>
</linearGradient>
<linearGradient id="paint2_linear_531_212" x1="66.1369" y1="1.67856" x2="66.186" y2="1.61884" gradientUnits="userSpaceOnUse">
<stop stop-color="#253672"/>
<stop offset="1" stop-color="#253672"/>
</linearGradient>
<linearGradient id="paint3_linear_531_212" x1="59.4489" y1="19.2563" x2="66.8279" y2="19.2563" gradientUnits="userSpaceOnUse">
<stop stop-color="#3C5CA6"/>
<stop offset="1" stop-color="#253672"/>
</linearGradient>
</defs>
</svg>
