<svg width="27" height="24" viewBox="0 0 27 24" fill="none" xmlns="http://www.w3.org/2000/svg">
<path fill-rule="evenodd" clip-rule="evenodd" d="M23.8336 5.79613C23.8435 6.05117 23.8468 6.30611 23.8468 6.56115C23.8468 14.2935 18.4075 23.2201 8.46078 23.2201C5.40534 23.2201 2.56421 22.2463 0.17041 20.5885C0.593557 20.6349 1.0233 20.6697 1.45964 20.6697C3.99302 20.6697 6.32637 19.7305 8.17722 18.1539C5.8109 18.1191 3.81278 16.415 3.12366 14.0964C3.45448 14.166 3.79517 14.2009 4.14358 14.2009C4.63487 14.2009 5.11187 14.1314 5.56909 13.9923C3.09285 13.459 1.22773 11.0942 1.22773 8.25393C1.22773 8.21915 1.22773 8.20749 1.22773 8.1843C1.95752 8.61324 2.79281 8.87973 3.67977 8.91451C2.22678 7.85957 1.27167 6.06274 1.27167 4.034C1.27167 2.96747 1.53765 1.95885 2.00586 1.08939C4.67223 4.63678 8.65863 6.96696 13.1528 7.21041C13.0605 6.78148 13.0132 6.32947 13.0132 5.87735C13.0132 2.64297 15.4344 0.0229492 18.4217 0.0229492C19.9769 0.0229492 21.3816 0.73021 22.3674 1.8663C23.6017 1.61126 24.758 1.1244 25.8043 0.452018C25.3987 1.81996 24.5425 2.96741 23.4237 3.68616C24.5183 3.54705 25.5625 3.23428 26.5308 2.77057C25.8043 3.94144 24.8899 4.97304 23.8336 5.79613Z" fill="#1253A6"/>
</svg>
