<svg width="44" height="36" viewBox="0 0 44 36" fill="none" xmlns="http://www.w3.org/2000/svg">
<path d="M41.9269 9.25004V3.41671C41.9269 3.02993 41.7349 2.659 41.393 2.38551C41.0511 2.11202 40.5875 1.95837 40.104 1.95837H3.64567C3.1622 1.95837 2.69854 2.11202 2.35667 2.38551C2.01481 2.659 1.82275 3.02993 1.82275 3.41671V9.25004H41.9269Z" fill="#8ACFE8"/>
<path d="M1.82275 12.1667V32.5834C1.82275 32.9702 2.01481 33.3411 2.35667 33.6146C2.69854 33.8881 3.1622 34.0417 3.64567 34.0417H12.7603V12.1667H1.82275Z" fill="#1253A6" fill-opacity="0.2"/>
<path d="M16.4062 34.0417H40.1042C40.5876 34.0417 41.0513 33.8881 41.3932 33.6146C41.735 33.3411 41.9271 32.9702 41.9271 32.5834V12.1667H16.4062V34.0417Z" fill="#1253A6"/>
</svg>
