<svg width="35" height="36" viewBox="0 0 35 36" fill="none" xmlns="http://www.w3.org/2000/svg">
<g clip-path="url(#clip0_318_425)">
<path d="M26.25 15.0833H35L30.625 9.25L26.25 15.0833ZM26.25 20.9167H35L30.625 26.75L26.25 20.9167Z" fill="#1253A6" fill-opacity="0.2"/>
<path d="M1.45833 0.5H10.2083V35.5H1.45833C1.07156 35.5 0.700625 35.3464 0.427135 35.0729C0.153644 34.7994 0 34.4284 0 34.0417V1.95833C0 1.57156 0.153644 1.20063 0.427135 0.927135C0.700625 0.653644 1.07156 0.5 1.45833 0.5Z" fill="#1253A6"/>
<path d="M13.125 0.5H21.875C22.2618 0.5 22.6327 0.653644 22.9062 0.927135C23.1797 1.20063 23.3333 1.57156 23.3333 1.95833V34.0417C23.3333 34.4284 23.1797 34.7994 22.9062 35.0729C22.6327 35.3464 22.2618 35.5 21.875 35.5H13.125V0.5Z" fill="#8ACFE8"/>
</g>
<defs>
<clipPath id="clip0_318_425">
<rect width="35" height="35" fill="white" transform="translate(0 0.5)"/>
</clipPath>
</defs>
</svg>
