<svg width="41" height="34" viewBox="0 0 41 34" fill="none" xmlns="http://www.w3.org/2000/svg">
<path d="M15.4061 14.0834H2.64567C2.1622 14.0834 1.69854 13.9297 1.35667 13.6562C1.01481 13.3827 0.822754 13.0118 0.822754 12.625V2.41671C0.822754 2.02993 1.01481 1.659 1.35667 1.38551C1.69854 1.11202 2.1622 0.958374 2.64567 0.958374H15.4061C15.8896 0.958374 16.3532 1.11202 16.6951 1.38551C17.0369 1.659 17.229 2.02993 17.229 2.41671V12.625C17.229 13.0118 17.0369 13.3827 16.6951 13.6562C16.3532 13.9297 15.8896 14.0834 15.4061 14.0834Z" fill="#1253A6"/>
<path d="M15.4061 33.0417H2.64567C2.1622 33.0417 1.69854 32.8881 1.35667 32.6146C1.01481 32.3411 0.822754 31.9702 0.822754 31.5834V21.3751C0.822754 20.9883 1.01481 20.6174 1.35667 20.3439C1.69854 20.0704 2.1622 19.9167 2.64567 19.9167H15.4061C15.8896 19.9167 16.3532 20.0704 16.6951 20.3439C17.0369 20.6174 17.229 20.9883 17.229 21.3751V31.5834C17.229 31.9702 17.0369 32.3411 16.6951 32.6146C16.3532 32.8881 15.8896 33.0417 15.4061 33.0417Z" fill="#1253A6"/>
<path d="M22.6978 2.41675H40.9269V5.33341H22.6978V2.41675Z" fill="#8ACFE8"/>
<path d="M40.9269 21.375H22.6978V24.2917H40.9269V21.375Z" fill="#8ACFE8"/>
<path d="M40.9269 28.6667H22.6978V31.5834H40.9269V28.6667Z" fill="#1253A6" fill-opacity="0.2"/>
<path d="M40.9269 9.70837H22.6978V12.625H40.9269V9.70837Z" fill="#1253A6" fill-opacity="0.2"/>
</svg>
