<svg width="35" height="36" viewBox="0 0 35 36" fill="none" xmlns="http://www.w3.org/2000/svg">
<g clip-path="url(#clip0_318_247)">
<path d="M30.6248 35.5H17.4998C17.1131 35.5 16.7421 35.3463 16.4686 35.0728C16.1951 34.7993 16.0415 34.4284 16.0415 34.0416V31.125C16.0415 30.7382 16.1951 30.3673 16.4686 30.0938C16.7421 29.8203 17.1131 29.6666 17.4998 29.6666H30.6248C31.0116 29.6666 31.3825 29.8203 31.656 30.0938C31.9295 30.3673 32.0832 30.7382 32.0832 31.125V34.0416C32.0832 34.4284 31.9295 34.7993 31.656 35.0728C31.3825 35.3463 31.0116 35.5 30.6248 35.5Z" fill="#1253A6" fill-opacity="0.2"/>
<path d="M30.6248 0.5H4.37484C3.98806 0.5 3.61713 0.653644 3.34364 0.927135C3.07015 1.20063 2.9165 1.57156 2.9165 1.95833V4.875C2.9165 5.26177 3.07015 5.63271 3.34364 5.9062C3.61713 6.17969 3.98806 6.33333 4.37484 6.33333H30.6248C31.0116 6.33333 31.3825 6.17969 31.656 5.9062C31.9295 5.63271 32.0832 5.26177 32.0832 4.875V1.95833C32.0832 1.57156 31.9295 1.20063 31.656 0.927135C31.3825 0.653644 31.0116 0.5 30.6248 0.5Z" fill="#8ACFE8"/>
<path d="M30.6248 9.25H4.37484C3.98806 9.25 3.61713 9.40364 3.34364 9.67713C3.07015 9.95063 2.9165 10.3216 2.9165 10.7083V25.2917C2.9165 25.6784 3.07015 26.0494 3.34364 26.3229C3.61713 26.5964 3.98806 26.75 4.37484 26.75H30.6248C31.0116 26.75 31.3825 26.5964 31.656 26.3229C31.9295 26.0494 32.0832 25.6784 32.0832 25.2917V10.7083C32.0832 10.3216 31.9295 9.95063 31.656 9.67713C31.3825 9.40364 31.0116 9.25 30.6248 9.25Z" fill="#1253A6"/>
</g>
<defs>
<clipPath id="clip0_318_247">
<rect width="35" height="35" fill="white" transform="translate(0 0.5)"/>
</clipPath>
</defs>
</svg>
